HIERARCHY
ROOT hip
{
  OFFSET 0 0 0
  CHANNELS 6 Xposition Yposition Zposition Zrotation Yrotation Xrotation
  JOINT abdomen
  {
    OFFSET 0 20.6881 -0.73152
    CHANNELS 3 Zrotation Xrotation Yrotation
    JOINT chest
    {
      OFFSET 0 11.7043 -0.48768
      CHANNELS 3 Zrotation Xrotation Yrotation
      JOINT neck
      {
        OFFSET 0 22.1894 -2.19456
        CHANNELS 3 Zrotation Xrotation Yrotation
        JOINT head
        {
          OFFSET -0.24384 7.07133 1.2192
          CHANNELS 3 Zrotation Xrotation Yrotation
          JOINT leftEye
          {
            OFFSET 4.14528 8.04674 8.04672
            CHANNELS 3 Zrotation Xrotation Yrotation
            End Site
            {
              OFFSET 1 0 0
            }
          }
          JOINT rightEye
          {
            OFFSET -3.6576 8.04674 8.04672
            CHANNELS 3 Zrotation Xrotation Yrotation
            End Site
            {
              OFFSET 1 0 0
            }
          }
        }
      }
      JOINT rCollar
      {
        OFFSET -2.68224 19.2634 -4.8768
        CHANNELS 3 Zrotation Xrotation Yrotation
        JOINT rShldr
        {
          OFFSET -8.77824 -1.95073 1.46304
          CHANNELS 3 Zrotation Xrotation Yrotation
          JOINT rForeArm
          {
            OFFSET -28.1742 -1.7115 0.48768
            CHANNELS 3 Zrotation Xrotation Yrotation
            JOINT rHand
            {
              OFFSET -22.5879 0.773209 7.07136
              CHANNELS 3 Zrotation Xrotation Yrotation
              JOINT rThumb1
              {
                OFFSET -1.2192 -0.487915 3.41376
                CHANNELS 3 Zrotation Xrotation Yrotation
                JOINT rThumb2
                {
                  OFFSET -3.37035 -0.52449 3.41376
                  CHANNELS 3 Zrotation Xrotation Yrotation
                  End Site
                  {
                    OFFSET -1.78271 -1.18214 1.43049
                  }
                }
              }
              JOINT rIndex1
              {
                OFFSET -7.75947 0.938293 5.60832
                CHANNELS 3 Zrotation Xrotation Yrotation
                JOINT rIndex2
                {
                  OFFSET -2.54057 -0.884171 1.56538
                  CHANNELS 3 Zrotation Xrotation Yrotation
                  End Site
                  {
                    OFFSET -1.62519 -0.234802 1.16502
                  }
                }
              }
              JOINT rMid1
              {
                OFFSET -8.24714 1.18213 3.41376
                CHANNELS 3 Zrotation Xrotation Yrotation
                JOINT rMid2
                {
                  OFFSET -3.10165 -0.590103 1.0647
                  CHANNELS 3 Zrotation Xrotation Yrotation
                  End Site
                  {
                    OFFSET -2.48547 -0.328903 0.83742
                  }
                }
              }
              JOINT rRing1
              {
                OFFSET -8.82822 0.546677 1.51678
                CHANNELS 3 Zrotation Xrotation Yrotation
                JOINT rRing2
                {
                  OFFSET -2.60934 -0.819778 -0.0198488
                  CHANNELS 3 Zrotation Xrotation Yrotation
                  End Site
                  {
                    OFFSET -2.33842 -0.294052 0.168128
                  }
                }
              }
              JOINT rPinky1
              {
                OFFSET -8.27202 -0.0477905 -0.4584
                CHANNELS 3 Zrotation Xrotation Yrotation
                JOINT rPinky2
                {
                  OFFSET -1.82734 -0.647385 -0.700984
                  CHANNELS 3 Zrotation Xrotation Yrotation
                  End Site
                  {
                    OFFSET -1.69225 -0.51767 -0.607171
                  }
                }
              }
            }
          }
        }
      }
      JOINT lCollar
      {
        OFFSET 2.68224 19.2634 -4.8768
        CHANNELS 3 Zrotation Xrotation Yrotation
        JOINT lShldr
        {
          OFFSET 8.77824 -1.95073 1.46304
          CHANNELS 3 Zrotation Xrotation Yrotation
          JOINT lForeArm
          {
            OFFSET 28.1742 -1.7115 0.48768
            CHANNELS 3 Zrotation Xrotation Yrotation
            JOINT lHand
            {
              OFFSET 22.5879 0.773209 7.07136
              CHANNELS 3 Zrotation Xrotation Yrotation
              JOINT lThumb1
              {
                OFFSET 1.2192 -0.487915 3.41376
                CHANNELS 3 Zrotation Xrotation Yrotation
                JOINT lThumb2
                {
                  OFFSET 3.37035 -0.52449 3.41376
                  CHANNELS 3 Zrotation Xrotation Yrotation
                  End Site
                  {
                    OFFSET 1.78271 -1.18214 1.43049
                  }
                }
              }
              JOINT lIndex1
              {
                OFFSET 7.75947 0.938293 5.60832
                CHANNELS 3 Zrotation Xrotation Yrotation
                JOINT lIndex2
                {
                  OFFSET 2.54057 -0.884171 1.56538
                  CHANNELS 3 Zrotation Xrotation Yrotation
                  End Site
                  {
                    OFFSET 1.62519 -0.234802 1.16502
                  }
                }
              }
              JOINT lMid1
              {
                OFFSET 8.24714 1.18213 3.41376
                CHANNELS 3 Zrotation Xrotation Yrotation
                JOINT lMid2
                {
                  OFFSET 3.10165 -0.590103 1.0647
                  CHANNELS 3 Zrotation Xrotation Yrotation
                  End Site
                  {
                    OFFSET 2.48547 -0.328903 0.83742
                  }
                }
              }
              JOINT lRing1
              {
                OFFSET 8.82822 0.546677 1.51678
                CHANNELS 3 Zrotation Xrotation Yrotation
                JOINT lRing2
                {
                  OFFSET 2.60934 -0.819778 -0.0198488
                  CHANNELS 3 Zrotation Xrotation Yrotation
                  End Site
                  {
                    OFFSET 2.33842 -0.294052 0.168128
                  }
                }
              }
              JOINT lPinky1
              {
                OFFSET 8.27202 -0.0477905 -0.4584
                CHANNELS 3 Zrotation Xrotation Yrotation
                JOINT lPinky2
                {
                  OFFSET 1.82734 -0.647385 -0.700984
                  CHANNELS 3 Zrotation Xrotation Yrotation
                  End Site
                  {
                    OFFSET 1.69225 -0.51767 -0.607171
                  }
                }
              }
            }
          }
        }
      }
    }
  }
  JOINT rButtock
  {
    OFFSET -8.77824 4.35084 1.2192
    CHANNELS 3 Zrotation Xrotation Yrotation
    JOINT rThigh
    {
      OFFSET 0 -1.70687 -2.19456
      CHANNELS 3 Zrotation Xrotation Yrotation
      JOINT rShin
      {
        OFFSET 0 -36.8199 0.73152
        CHANNELS 3 Zrotation Xrotation Yrotation
        JOINT rFoot
        {
          OFFSET 0.73152 -45.1104 -5.12064
          CHANNELS 3 Zrotation Xrotation Yrotation
          End Site
          {
            OFFSET -1.1221 -3.69964 12.103
          }
        }
      }
    }
  }
  JOINT lButtock
  {
    OFFSET 8.77824 4.35084 1.2192
    CHANNELS 3 Zrotation Xrotation Yrotation
    JOINT lThigh
    {
      OFFSET 0 -1.70687 -2.19456
      CHANNELS 3 Zrotation Xrotation Yrotation
      JOINT lShin
      {
        OFFSET 0 -36.8199 0.73152
        CHANNELS 3 Zrotation Xrotation Yrotation
        JOINT lFoot
        {
          OFFSET -0.73152 -45.1104 -5.12064
          CHANNELS 3 Zrotation Xrotation Yrotation
          End Site
          {
            OFFSET 1.1221 -3.69964 12.103
          }
        }
      }
    }
  }
}
MOTION
Frames:	9
Frame Time:	0.00833333
0.785608 82.4855 51.2347 0.0 0.0 0.0 -4.35894 0.0062924 -0.117455 -1.20158 0.0324761 -0.207681 1.01748e-13 7.95139e-16 -3.47873e-16 3.04529e-13 9.54166e-15 -1.54679e-15 -0.0 0.0 0.0 -0.0 0.0 0.0 5.10889e-14 1.47535e-16 -4.96962e-17 1.06771e-12 3.23025e-15 -3.97569e-16 1.83453e-11 -5.42265e-12 -2.29e-13 2.10719e-10 6.06472e-12 -5.50236e-13 4.9692e-10 1.38674e-12 -1.73022e-12 8.58163e-10 2.39496e-12 -3.0104e-12 4.96923e-10 1.38553e-12 -1.73976e-12 7.73091 5.47488 0.417314 4.9692e-10 1.38642e-12 -1.72704e-12 2.90554 0.965183 0.102902 4.96924e-10 1.38642e-12 -1.73022e-12 10.2786 0.731801 0.0259123 4.96911e-10 1.3899e-12 -1.72386e-12 2.22167 -0.733487 -0.20892 5.07916e-14 1.48506e-16 -4.47265e-16 1.06866e-12 2.65253e-15 -1.59028e-15 1.8473e-11 5.58466e-12 -2.67167e-13 2.10667e-10 -4.97501e-12 -5.02528e-13 4.97074e-10 1.32551e-12 -1.74294e-12 8.58435e-10 2.29e-12 -3.02073e-12 4.97071e-10 1.3243e-12 -1.73976e-12 -7.73091 5.47488 -0.417314 4.97075e-10 1.325e-12 -1.73976e-12 -2.90554 0.965183 -0.102902 4.97067e-10 1.32579e-12 -1.74135e-12 -10.2786 0.731801 -0.0259123 4.97079e-10 1.32748e-12 -1.75249e-12 -2.22167 -0.733487 0.20892 -2.03217e-16 0.0 -3.88251e-19 -2.88814 -1.94435 0.0304153 -0.00797275 -2.07874 -0.0650939 -0.422305 4.00217 0.127123 2.03217e-16 0.0 3.88251e-19 -3.72546 -11.2507 0.483807 -0.0143128 14.7725 -0.388793 0.54492 -3.54242 0.0125024
-1.30724 82.1742 49.2912 -8.3965 -0.8109 8.1429 -2.29483 -2.56552 1.04123 -2.42345 -2.67645 -0.0472134 -2.45927 4.12162 -3.65963 5.67911 -1.69026 -7.08126 -0.0 0.0 0.0 -0.0 0.0 0.0 8.82961e-14 -1.14414e-14 2.30272e-15 23.4124 -0.0277916 -2.95792 -3.49809 -1.46869 5.58782 0.154365 8.73781 1.17715 -1.23189e-10 4.63968e-10 -1.79852e-10 -2.16446e-10 7.9864e-10 -2.97151e-10 -1.23186e-10 4.63965e-10 -1.7986e-10 7.73091 5.47488 0.417314 -1.2319e-10 4.63966e-10 -1.79847e-10 2.90554 0.965183 0.102902 -1.23186e-10 4.63966e-10 -1.79852e-10 10.2786 0.731801 0.0259123 -1.23198e-10 4.63969e-10 -1.79846e-10 2.22167 -0.733487 -0.20892 8.80506e-14 -1.14276e-14 1.92767e-15 -21.8486 0.968078 3.69938 2.52751 -0.94022 -4.14506 -0.106287 7.24328 -0.988849 1.22673e-10 -3.2209e-10 -6.24592e-10 1.99345e-10 -5.62088e-10 -1.07345e-09 1.22668e-10 -3.2209e-10 -6.24587e-10 -7.73091 5.47488 -0.417314 1.22674e-10 -3.2209e-10 -6.24589e-10 -2.90554 0.965183 -0.102902 1.22666e-10 -3.22089e-10 -6.24591e-10 -10.2786 0.731801 -0.0259123 1.22677e-10 -3.22088e-10 -6.24601e-10 -2.22167 -0.733487 0.20892 -2.03217e-16 0.0 -3.88251e-19 -1.48273 -2.75568 6.17051 0.00505027 -1.56359 0.0434016 -0.99425 1.23201 -6.44994 2.03217e-16 0.0 3.88251e-19 -2.35876 -10.8173 -9.73609 -0.00983489 14.2667 -0.306243 1.23009 -7.50611 12.5663
-1.31132 82.1741 49.2867 -8.4205 -0.8005 8.162 0.0126759 -5.26822 2.28896 -3.71558 -5.55308 0.125327 -4.47131 8.44623 -7.59493 11.2357 -3.40661 -14.5957 -0.0 0.0 0.0 -0.0 0.0 0.0 1.26197e-13 -2.4897e-14 5.59393e-15 48.1748 -0.0870624 -6.10527 -6.89267 -2.97877 11.5171 -0.0913512 17.9919 2.52031 -7.86616e-10 9.56342e-10 -3.59464e-10 -1.36589e-09 1.64591e-09 -5.92876e-10 -7.86613e-10 9.56338e-10 -3.5947e-10 7.73091 5.47488 0.417314 -7.86618e-10 9.56338e-10 -3.59456e-10 2.90554 0.965183 0.102902 -7.86616e-10 9.56338e-10 -3.59464e-10 10.2786 0.731801 0.0259123 -7.86625e-10 9.56342e-10 -3.59457e-10 2.22167 -0.733487 -0.20892 1.26004e-13 -2.4869e-14 5.23984e-15 -45.0657 1.98179 7.62023 5.04744 -1.9154 -8.52317 0.0618831 14.9054 -2.08986 -2.67478e-10 -6.66354e-10 -1.28993e-09 -4.87835e-10 -1.1629e-09 -2.21706e-09 -2.67484e-10 -6.66352e-10 -1.28992e-09 -7.73091 5.47488 -0.417314 -2.67477e-10 -6.66353e-10 -1.28992e-09 -2.90554 0.965183 -0.102902 -2.67485e-10 -6.66352e-10 -1.28993e-09 -10.2786 0.731801 -0.0259123 -2.67475e-10 -6.66351e-10 -1.28994e-09 -2.22167 -0.733487 0.20892 -2.03217e-16 0.0 -3.88251e-19 0.200198 -3.54956 12.6686 0.0167296 -1.01791 0.158147 -2.28426 -1.63468 -13.4005 2.03217e-16 0.0 3.88251e-19 -0.732566 -10.0043 -20.4907 -0.00346958 13.7309 -0.219465 3.80423 -10.8665 26.1101
-1.30753 82.1731 49.2849 -8.408 -0.783 8.1681 2.14761 -7.69713 3.38602 -4.82139 -8.09423 0.276631 -5.77836 12.1609 -11.205 15.8122 -4.76199 -21.3116 -0.0 0.0 0.0 -0.0 0.0 0.0 1.62711e-13 -3.46193e-14 7.00755e-15 70.2285 -0.0824867 -8.87377 -9.64651 -4.23873 16.8052 -0.717724 26.1666 3.88959 -1.36341e-09 1.38913e-09 -5.36096e-10 -2.36566e-09 2.39113e-09 -8.85433e-10 -1.3634e-09 1.38912e-09 -5.361e-10 7.73091 5.47488 0.417314 -1.36341e-09 1.38912e-09 -5.36086e-10 2.90554 0.965183 0.102902 -1.36341e-09 1.38912e-09 -5.36096e-10 10.2786 0.731801 0.0259123 -1.36341e-09 1.38913e-09 -5.36089e-10 2.22167 -0.733487 -0.20892 1.62569e-13 -3.45799e-14 6.67753e-15 -65.9188 2.85584 11.1105 7.17756 -2.76168 -12.4482 0.479471 21.7029 -3.16762 -6.26129e-10 -9.68922e-10 -1.87029e-09 -1.11884e-09 -1.69084e-09 -3.21431e-09 -6.26137e-10 -9.68919e-10 -1.87028e-09 -7.73091 5.47488 -0.417314 -6.26129e-10 -9.68921e-10 -1.87029e-09 -2.90554 0.965183 -0.102902 -6.26137e-10 -9.68919e-10 -1.87029e-09 -10.2786 0.731801 -0.0259123 -6.26128e-10 -9.68918e-10 -1.8703e-09 -2.22167 -0.733487 0.20892 -2.03217e-16 0.0 -3.88251e-19 1.83857 -4.199 18.4806 0.0252437 -0.533284 0.26027 -4.01334 -4.03614 -19.6497 2.03217e-16 0.0 3.88251e-19 0.905 -9.03835 -30.044 0.00361206 13.255 -0.142302 7.45285 -12.6419 38.4399
-1.30607 82.1733 49.2859 -8.4036 -0.777 8.1625 3.62436 -9.45375 4.07992 -5.49518 -9.79679 0.371522 -6.47724 14.5487 -13.7801 18.8113 -5.51746 -25.9638 -0.0 0.0 0.0 -0.0 0.0 0.0 1.95756e-13 -3.50082e-14 3.72721e-15 85.5307 0.0787044 -10.6952 -11.3978 -5.03519 20.4502 -1.41335 31.688 4.9772 -1.7236e-09 1.67295e-09 -7.05278e-10 -2.99127e-09 2.88126e-09 -1.17007e-09 -1.7236e-09 1.67295e-09 -7.05282e-10 7.73091 5.47488 0.417314 -1.72361e-09 1.67295e-09 -7.05269e-10 2.90554 0.965183 0.102902 -1.72361e-09 1.67295e-09 -7.05279e-10 10.2786 0.731801 0.0259123 -1.72361e-09 1.67295e-09 -7.05272e-10 2.22167 -0.733487 -0.20892 1.95663e-13 -3.49647e-14 3.42904e-15 -80.5964 3.42767 13.5123 8.61475 -3.34104 -15.2282 0.935904 26.3646 -3.99428 -9.06033e-10 -1.16725e-09 -2.23823e-09 -1.60939e-09 -2.0366e-09 -3.84562e-09 -9.06042e-10 -1.16725e-09 -2.23821e-09 -7.73091 5.47488 -0.417314 -9.06034e-10 -1.16725e-09 -2.23822e-09 -2.90554 0.965183 -0.102902 -9.06042e-10 -1.16725e-09 -2.23823e-09 -10.2786 0.731801 -0.0259123 -9.06032e-10 -1.16725e-09 -2.23823e-09 -2.22167 -0.733487 0.20892 -2.03217e-16 0.0 -3.88251e-19 3.02034 -4.63854 22.5546 0.0300026 -0.201326 0.330897 -5.52979 -5.57284 -24.0679 2.03217e-16 0.0 3.88251e-19 2.12578 -8.28539 -36.7054 0.00931551 12.929 -0.0883731 10.5499 -12.9924 47.1081
-1.29979 82.1778 49.2982 -8.2516 -0.7717 8.2826 4.05347 -10.3057 4.19612 -5.57598 -10.3082 0.388013 -6.83835 15.2184 -14.759 19.9633 -5.64118 -27.697 -0.0 0.0 0.0 -0.0 0.0 0.0 2.28611e-13 -2.02052e-14 -8.04068e-15 91.389 0.475027 -11.1789 -11.9924 -5.28937 21.7575 -1.71004 33.4772 5.37365 -1.77008e-09 1.74551e-09 -8.80045e-10 -3.0752e-09 3.00999e-09 -1.47156e-09 -1.77008e-09 1.74551e-09 -8.80047e-10 7.73091 5.47488 0.417314 -1.77008e-09 1.74551e-09 -8.80038e-10 2.90554 0.965183 0.102902 -1.77008e-09 1.74551e-09 -8.80046e-10 10.2786 0.731801 0.0259123 -1.77009e-09 1.74551e-09 -8.8004e-10 2.22167 -0.733487 -0.20892 2.28577e-13 -2.01694e-14 -8.27985e-15 -86.5136 3.65455 14.3764 9.20978 -3.58834 -16.4078 1.14189 28.0279 -4.31359 -1.09133e-09 -1.22109e-09 -2.30702e-09 -1.93019e-09 -2.12971e-09 -3.96133e-09 -1.09134e-09 -1.22109e-09 -2.30701e-09 -7.73091 5.47488 -0.417314 -1.09133e-09 -1.22109e-09 -2.30702e-09 -2.90554 0.965183 -0.102902 -1.09134e-09 -1.22109e-09 -2.30702e-09 -10.2786 0.731801 -0.0259123 -1.09133e-09 -1.22109e-09 -2.30703e-09 -2.22167 -0.733487 0.20892 -2.03217e-16 0.0 -3.88251e-19 3.40787 -4.89058 24.1897 0.031244 -0.0847142 0.35731 -6.19348 -6.13142 -25.8617 2.03217e-16 0.0 3.88251e-19 2.51444 -8.06292 -39.3833 0.0117352 12.8153 -0.0664392 11.877 -12.9198 50.5508
-1.27852 82.187 49.3154 -7.9446 -0.7609 8.5473 3.71173 -10.5122 3.89379 -5.23587 -9.96954 0.347799 -7.07034 14.6988 -14.5606 19.8608 -5.36483 -27.3381 -0.0 0.0 0.0 -0.0 0.0 0.0 2.61107e-13 5.34801e-15 -2.57799e-14 90.4889 1.04088 -10.7086 -11.8139 -5.18609 21.3896 -1.59809 32.6137 5.19257 -1.59297e-09 1.6673e-09 -1.05804e-09 -2.77306e-09 2.88078e-09 -1.78374e-09 -1.59296e-09 1.66729e-09 -1.05804e-09 7.73091 5.47488 0.417314 -1.59297e-09 1.6673e-09 -1.05804e-09 2.90554 0.965183 0.102902 -1.59297e-09 1.66729e-09 -1.05804e-09 10.2786 0.731801 0.0259123 -1.59298e-09 1.66729e-09 -1.05803e-09 2.22167 -0.733487 -0.20892 2.61139e-13 5.36785e-15 -2.59414e-14 -86.1486 3.6416 14.1403 9.23215 -3.61001 -16.4413 1.0925 27.5569 -4.22528 -1.20831e-09 -1.17166e-09 -2.16223e-09 -2.12848e-09 -2.04225e-09 -3.70891e-09 -1.20832e-09 -1.17166e-09 -2.16222e-09 -7.73091 5.47488 -0.417314 -1.20831e-09 -1.17166e-09 -2.16223e-09 -2.90554 0.965183 -0.102902 -1.20832e-09 -1.17166e-09 -2.16223e-09 -10.2786 0.731801 -0.0259123 -1.20831e-09 -1.17166e-09 -2.16224e-09 -2.22167 -0.733487 0.20892 -2.03217e-16 0.0 -3.88251e-19 3.19304 -5.03554 24.0796 0.0303864 -0.121841 0.352143 -6.1242 -6.06223 -25.7618 2.03217e-16 0.0 3.88251e-19 2.25726 -8.26823 -39.2284 0.0114899 12.853 -0.0672954 11.7948 -12.9653 50.2871
-1.28199 82.1918 49.3212 -7.8421 -0.7496 8.7074 3.10033 -10.4151 3.415 -4.73109 -9.31858 0.28016 -7.24902 13.7004 -13.8926 19.2326 -4.91437 -26.1323 -0.0 0.0 0.0 -0.0 0.0 0.0 2.85997e-13 3.18007e-14 -4.2842e-14 86.8624 1.65046 -9.8764 -11.3314 -4.94391 20.3719 -1.35135 30.7743 4.81148 -1.34321e-09 1.53312e-09 -1.2117e-09 -2.34504e-09 2.65521e-09 -2.05552e-09 -1.3432e-09 1.53311e-09 -1.2117e-09 7.73091 5.47488 0.417314 -1.34322e-09 1.53311e-09 -1.2117e-09 2.90554 0.965183 0.102902 -1.34321e-09 1.53311e-09 -1.2117e-09 10.2786 0.731801 0.0259123 -1.34322e-09 1.53311e-09 -1.2117e-09 2.22167 -0.733487 -0.20892 2.86076e-13 3.18039e-14 -4.29445e-14 -83.2725 3.45864 13.4738 9.01819 -3.53713 -15.9994 0.950252 26.2764 -3.98541 -1.27294e-09 -1.0786e-09 -1.93478e-09 -2.23473e-09 -1.87869e-09 -3.31452e-09 -1.27294e-09 -1.0786e-09 -1.93477e-09 -7.73091 5.47488 -0.417314 -1.27294e-09 -1.0786e-09 -1.93479e-09 -2.90554 0.965183 -0.102902 -1.27295e-09 -1.0786e-09 -1.93479e-09 -10.2786 0.731801 -0.0259123 -1.27293e-09 -1.0786e-09 -1.9348e-09 -2.22167 -0.733487 0.20892 -2.03217e-16 0.0 -3.88251e-19 2.74983 -5.11841 23.2619 0.0288216 -0.217867 0.334541 -5.76089 -5.74504 -24.8939 2.03217e-16 0.0 3.88251e-19 1.77471 -8.63075 -37.9247 0.0101226 12.9477 -0.0775905 11.134 -13.0584 48.5283
-1.29939 82.2091 49.3182 -7.9068 -0.7509 8.75 2.72048 -10.3568 3.00239 -4.3195 -8.89302 0.214042 -7.46846 12.9376 -13.4534 18.8265 -4.526 -25.3213 -0.0 0.0 0.0 -0.0 0.0 0.0 2.96033e-13 4.93023e-14 -5.25785e-14 84.5672 2.17315 -9.27397 -11.0202 -4.78479 19.7291 -1.21405 29.6385 4.58646 -1.17175e-09 1.43776e-09 -1.31348e-09 -2.05132e-09 2.49486e-09 -2.23579e-09 -1.17174e-09 1.43776e-09 -1.31348e-09 7.73091 5.47488 0.417314 -1.17175e-09 1.43776e-09 -1.31348e-09 2.90554 0.965183 0.102902 -1.17174e-09 1.43775e-09 -1.31348e-09 10.2786 0.731801 0.0259123 -1.17175e-09 1.43775e-09 -1.31347e-09 2.22167 -0.733487 -0.20892 2.96116e-13 4.92955e-14 -5.26779e-14 -81.6586 3.17519 13.047 8.89934 -3.49876 -15.7529 0.870915 25.5117 -3.8457 -1.30118e-09 -1.00156e-09 -1.75562e-09 -2.27945e-09 -1.74352e-09 -3.00434e-09 -1.30118e-09 -1.00156e-09 -1.75561e-09 -7.73091 5.47488 -0.417314 -1.30118e-09 -1.00156e-09 -1.75562e-09 -2.90554 0.965183 -0.102902 -1.30119e-09 -1.00156e-09 -1.75562e-09 -10.2786 0.731801 -0.0259123 -1.30117e-09 -1.00156e-09 -1.75563e-09 -2.22167 -0.733487 0.20892 -2.03217e-16 0.0 -3.88251e-19 2.46578 -5.17717 22.7757 0.0279658 -0.277951 0.323647 -5.55012 -5.55441 -24.3851 2.03217e-16 0.0 3.88251e-19 1.47102 -8.85955 -37.155 0.00917789 13.0046 -0.0839735 10.7386 -13.0929 47.4834
